HIERARCHY
ROOT PELVIS
{
  OFFSET 0.0000 0.0000 0.0000
  CHANNELS 6 Xposition Yposition Zposition Zrotation Xrotation Yrotation
  JOINT SPINE_1
  {
    OFFSET 0.0000 12.0000 0.0000
    CHANNELS 3 Zrotation Xrotation Yrotation
    JOINT SPINE_2
    {
      OFFSET 0.0000 13.0000 0.0000
      CHANNELS 3 Zrotation Xrotation Yrotation
      JOINT CHEST
      {
        OFFSET 0.0000 11.0000 0.0000
        CHANNELS 3 Zrotation Xrotation Yrotation
        JOINT NECK
        {
          OFFSET 0.0000 20.0000 0.0000
          CHANNELS 3 Zrotation Xrotation Yrotation
          JOINT HEAD
          {
            OFFSET 0.0000 12.0000 0.0000
            CHANNELS 3 Zrotation Xrotation Yrotation
            End Site
            {
              OFFSET 0.0000 6.0000 0.0000
            }
          }
        }
        JOINT L_SHOULDER
        {
          OFFSET -19.0000 15.0000 0.0000
          CHANNELS 3 Zrotation Xrotation Yrotation
          JOINT L_UPPER_ARM
          {
            OFFSET -7.0000 0.0000 0.0000
            CHANNELS 3 Zrotation Xrotation Yrotation
            JOINT L_FOREARM
            {
              OFFSET -28.0000 0.0000 0.0000
              CHANNELS 3 Zrotation Xrotation Yrotation
              JOINT L_HAND
              {
                OFFSET -26.0000 0.0000 0.0000
                CHANNELS 3 Zrotation Xrotation Yrotation
                End Site
                {
                  OFFSET -13.0000 0.0000 0.0000
                }
              }
            }
          }
        }
        JOINT R_SHOULDER
        {
          OFFSET 19.0000 15.0000 0.0000
          CHANNELS 3 Zrotation Xrotation Yrotation
          JOINT R_UPPER_ARM
          {
            OFFSET 7.0000 0.0000 0.0000
            CHANNELS 3 Zrotation Xrotation Yrotation
            JOINT R_FOREARM
            {
              OFFSET 28.0000 0.0000 0.0000
              CHANNELS 3 Zrotation Xrotation Yrotation
              JOINT R_HAND
              {
                OFFSET 26.0000 0.0000 0.0000
                CHANNELS 3 Zrotation Xrotation Yrotation
                End Site
                {
                  OFFSET 13.0000 0.0000 0.0000
                }
              }
            }
          }
        }
      }
    }
  }
  JOINT L_THIGH
  {
    OFFSET -9.0000 -7.0000 0.0000
    CHANNELS 3 Zrotation Xrotation Yrotation
    JOINT L_SHIN
    {
      OFFSET 0.0000 -43.0000 0.0000
      CHANNELS 3 Zrotation Xrotation Yrotation
      JOINT L_FOOT
      {
        OFFSET 0.0000 -40.0000 0.0000
        CHANNELS 3 Zrotation Xrotation Yrotation
        End Site
        {
          OFFSET 0.0000 -20.0000 0.0000
        }
      }
    }
  }
  JOINT R_THIGH
  {
    OFFSET 9.0000 -7.0000 0.0000
    CHANNELS 3 Zrotation Xrotation Yrotation
    JOINT R_SHIN
    {
      OFFSET 0.0000 -43.0000 0.0000
      CHANNELS 3 Zrotation Xrotation Yrotation
      JOINT R_FOOT
      {
        OFFSET 0.0000 -40.0000 0.0000
        CHANNELS 3 Zrotation Xrotation Yrotation
        End Site
        {
          OFFSET 0.0000 -20.0000 0.0000
        }
      }
    }
  }
}

MOTION
Frames: 14
Frame Time: 0.010000
0.0000 90.0000 0.0000 0.0029 -0.0360 0.0024 -0.0003 0.0004 -0.0025 -0.0003 0.0004 -0.0025 -0.0003 0.0005 -0.0026 -0.0000 0.0000 -0.0000 -0.0000 0.0000 -0.0000 -0.0000 0.0000 -0.0000 -0.0000 0.0000 -0.0000 -0.0000 0.0000 -0.0000 -0.0000 0.0000 -0.0000 -0.0000 0.0000 -0.0000 -0.0000 0.0000 -0.0000 -0.0000 0.0000 -0.0000 -0.0000 0.0000 -0.0000 -0.0047 0.0073 -0.0198 0.0035 0.0606 0.0438 -0.0000 0.0000 -0.0000 -0.0039 0.0563 -0.0356 0.0032 0.0187 0.0323 -0.0000 0.0000 -0.0000
0.0000 90.0000 0.0000 -0.0078 -0.0356 -0.0379 0.0079 0.0028 0.0035 0.0079 0.0028 0.0035 0.0081 0.0029 0.0036 -0.0000 0.0000 -0.0000 -0.0000 0.0000 -0.0000 -0.0000 0.0000 -0.0000 -0.0000 0.0000 -0.0000 -0.0000 0.0000 -0.0000 -0.0000 0.0000 -0.0000 -0.0000 0.0000 -0.0000 -0.0000 0.0000 -0.0000 -0.0000 0.0000 -0.0000 -0.0000 0.0000 -0.0000 -0.0091 -0.0314 0.0363 0.0054 0.0563 0.0396 -0.0000 0.0000 -0.0000 -0.0080 0.0866 0.0156 0.0074 0.0007 0.0022 0.0000 -0.0000 -0.0000
0.0000 90.0000 0.0000 -0.0262 -0.0210 -0.0870 0.0203 -0.0089 0.0135 0.0203 -0.0089 0.0135 0.0209 -0.0092 0.0140 0.0000 -0.0000 -0.0000 0.0000 -0.0000 -0.0000 0.0000 -0.0000 -0.0000 0.0000 -0.0000 -0.0000 0.0000 -0.0000 -0.0000 0.0000 -0.0000 -0.0000 0.0000 -0.0000 -0.0000 0.0000 -0.0000 -0.0000 0.0000 -0.0000 -0.0000 0.0000 -0.0000 -0.0000 -0.0089 -0.0667 0.0580 0.0048 0.0436 0.0258 -0.0000 0.0000 -0.0000 -0.0061 0.0970 0.0783 0.0105 -0.0111 -0.0334 0.0000 -0.0000 -0.0000
0.0000 90.0000 0.0000 -0.0403 0.0066 -0.0978 0.0322 -0.0121 0.0215 0.0322 -0.0121 0.0215 0.0332 -0.0124 0.0221 -0.0000 0.0000 -0.0000 -0.0000 0.0000 -0.0000 -0.0000 0.0000 -0.0000 -0.0000 0.0000 -0.0000 -0.0000 0.0000 -0.0000 -0.0000 0.0000 -0.0000 -0.0000 0.0000 -0.0000 -0.0000 0.0000 -0.0000 -0.0000 0.0000 -0.0000 -0.0000 0.0000 -0.0000 -0.0114 -0.1016 0.0614 0.0034 0.0409 0.0237 -0.0000 0.0000 -0.0000 -0.0133 0.1180 0.1020 0.0194 -0.0444 -0.0754 0.0000 -0.0000 -0.0000
0.0000 90.0000 0.0000 -0.0524 -0.0150 -0.1245 0.0417 0.0062 0.0337 0.0417 0.0062 0.0337 0.0429 0.0063 0.0347 -0.0000 0.0000 -0.0000 -0.0000 0.0000 -0.0000 -0.0000 0.0000 -0.0000 -0.0000 0.0000 -0.0000 -0.0000 0.0000 -0.0000 -0.0000 0.0000 -0.0000 -0.0000 0.0000 -0.0000 -0.0000 0.0000 -0.0000 -0.0000 0.0000 -0.0000 -0.0000 0.0000 -0.0000 -0.0167 -0.0803 0.0610 0.0049 -0.0057 0.0579 -0.0000 0.0000 -0.0000 -0.0231 0.1781 0.0853 0.0268 -0.0714 -0.0543 0.0000 -0.0000 -0.0000
0.0000 90.0000 0.0000 -0.0694 -0.0287 -0.1744 0.0536 0.0218 0.0489 0.0536 0.0218 0.0489 0.0553 0.0224 0.0504 0.0000 -0.0000 -0.0000 0.0000 -0.0000 -0.0000 0.0000 -0.0000 -0.0000 0.0000 -0.0000 -0.0000 0.0000 -0.0000 -0.0000 0.0000 -0.0000 -0.0000 0.0000 -0.0000 -0.0000 0.0000 -0.0000 -0.0000 0.0000 -0.0000 -0.0000 0.0000 -0.0000 -0.0000 -0.0159 -0.0697 0.0922 -0.0010 -0.0653 0.0401 0.0000 -0.0000 -0.0000 -0.0258 0.2349 0.0833 0.0345 -0.1008 -0.0252 -0.0000 0.0000 -0.0000
0.0000 90.0000 0.0000 -0.0924 -0.0546 -0.1750 0.0682 0.0248 0.0530 0.0682 0.0248 0.0530 0.0703 0.0255 0.0546 -0.0000 0.0000 -0.0000 -0.0000 0.0000 -0.0000 -0.0000 0.0000 -0.0000 -0.0000 0.0000 -0.0000 -0.0000 0.0000 -0.0000 -0.0000 0.0000 -0.0000 -0.0000 0.0000 -0.0000 -0.0000 0.0000 -0.0000 -0.0000 0.0000 -0.0000 -0.0000 0.0000 -0.0000 -0.0096 -0.0705 0.0486 -0.0048 -0.0915 0.0316 -0.0000 0.0000 -0.0000 -0.0234 0.3247 0.0672 0.0396 -0.1529 -0.0335 0.0000 -0.0000 -0.0000
0.0000 90.0000 0.0000 -0.1143 -0.0389 -0.2064 0.0815 0.0083 0.0658 0.0815 0.0083 0.0658 0.0840 0.0086 0.0678 -0.0000 0.0000 -0.0000 -0.0000 0.0000 -0.0000 -0.0000 0.0000 -0.0000 -0.0000 0.0000 -0.0000 -0.0000 0.0000 -0.0000 -0.0000 0.0000 -0.0000 -0.0000 0.0000 -0.0000 -0.0000 0.0000 -0.0000 -0.0000 0.0000 -0.0000 -0.0000 0.0000 -0.0000 -0.0028 -0.1230 0.0269 -0.0048 -0.0983 0.0874 0.0000 -0.0000 -0.0000 -0.0227 0.3770 0.0888 0.0453 -0.2137 -0.0493 0.0000 -0.0000 -0.0000
0.0000 90.0000 0.0000 -0.1371 -0.0590 -0.2428 0.0954 0.0122 0.0706 0.0954 0.0122 0.0706 0.0983 0.0125 0.0727 -0.0000 0.0000 -0.0000 -0.0000 0.0000 -0.0000 -0.0000 0.0000 -0.0000 -0.0000 0.0000 -0.0000 -0.0000 0.0000 -0.0000 -0.0000 0.0000 -0.0000 -0.0000 0.0000 -0.0000 -0.0000 0.0000 -0.0000 -0.0000 0.0000 -0.0000 -0.0000 0.0000 -0.0000 0.0023 -0.1670 0.0410 -0.0033 -0.1004 0.0934 0.0000 -0.0000 -0.0000 -0.0158 0.4114 0.0999 0.0436 -0.2177 -0.0548 -0.0000 0.0000 -0.0000
0.0000 90.0000 0.0000 -0.1573 -0.0958 -0.2586 0.1085 0.0162 0.0809 0.1085 0.0162 0.0809 0.1118 0.0167 0.0834 0.0000 -0.0000 -0.0000 0.0000 -0.0000 -0.0000 0.0000 -0.0000 -0.0000 0.0000 -0.0000 -0.0000 0.0000 -0.0000 -0.0000 0.0000 -0.0000 -0.0000 0.0000 -0.0000 -0.0000 0.0000 -0.0000 -0.0000 0.0000 -0.0000 -0.0000 0.0000 -0.0000 -0.0000 0.0036 -0.1845 0.0145 -0.0002 -0.1126 0.1332 -0.0000 0.0000 -0.0000 -0.0096 0.4539 0.1102 0.0409 -0.2190 -0.0747 0.0000 -0.0000 -0.0000
0.0000 90.0000 0.0000 -0.1774 -0.0923 -0.2538 0.1201 0.0220 0.0843 0.1201 0.0220 0.0843 0.1237 0.0226 0.0869 -0.0000 0.0000 -0.0000 -0.0000 0.0000 -0.0000 -0.0000 0.0000 -0.0000 -0.0000 0.0000 -0.0000 -0.0000 0.0000 -0.0000 -0.0000 0.0000 -0.0000 -0.0000 0.0000 -0.0000 -0.0000 0.0000 -0.0000 -0.0000 0.0000 -0.0000 -0.0000 0.0000 -0.0000 0.0065 -0.2016 -0.0062 0.0005 -0.1653 0.1545 0.0000 -0.0000 -0.0000 -0.0020 0.4525 0.0951 0.0382 -0.2146 -0.0846 -0.0000 0.0000 -0.0000
0.0000 89.9999 0.0000 -0.1946 -0.1182 -0.2599 0.1335 0.0383 0.0817 0.1335 0.0383 0.0817 0.1376 0.0395 0.0842 -0.0000 0.0000 -0.0000 -0.0000 0.0000 -0.0000 -0.0000 0.0000 -0.0000 -0.0000 0.0000 -0.0000 -0.0000 0.0000 -0.0000 -0.0000 0.0000 -0.0000 -0.0000 0.0000 -0.0000 -0.0000 0.0000 -0.0000 -0.0000 0.0000 -0.0000 -0.0000 0.0000 -0.0000 0.0036 -0.2219 0.0045 0.0028 -0.1625 0.1130 0.0000 -0.0000 -0.0000 -0.0008 0.5305 0.0849 0.0382 -0.2609 -0.0948 0.0000 -0.0000 -0.0000
0.0000 89.9999 0.0000 -0.2099 -0.0950 -0.2753 0.1441 0.0260 0.0948 0.1441 0.0260 0.0948 0.1484 0.0268 0.0976 0.0000 -0.0000 -0.0000 0.0000 -0.0000 -0.0000 0.0000 -0.0000 -0.0000 0.0000 -0.0000 -0.0000 0.0000 -0.0000 -0.0000 0.0000 -0.0000 -0.0000 0.0000 -0.0000 -0.0000 0.0000 -0.0000 -0.0000 0.0000 -0.0000 -0.0000 0.0000 -0.0000 -0.0000 0.0025 -0.3122 0.0186 -0.0041 -0.1545 0.0661 -0.0000 0.0000 -0.0000 -0.0010 0.5181 0.0856 0.0393 -0.2685 -0.0949 0.0000 -0.0000 -0.0000
0.0000 89.9999 0.0000 -0.2266 -0.0680 -0.2786 0.1543 0.0220 0.0930 0.1543 0.0220 0.0930 0.1590 0.0227 0.0959 -0.0000 0.0000 -0.0000 -0.0000 0.0000 -0.0000 -0.0000 0.0000 -0.0000 -0.0000 0.0000 -0.0000 -0.0000 0.0000 -0.0000 -0.0000 0.0000 -0.0000 -0.0000 0.0000 -0.0000 -0.0000 0.0000 -0.0000 -0.0000 0.0000 -0.0000 -0.0000 0.0000 -0.0000 0.0010 -0.3862 -0.0215 -0.0037 -0.1399 0.1144 -0.0000 0.0000 -0.0000 -0.0013 0.5099 0.0985 0.0448 -0.2868 -0.1227 -0.0000 0.0000 -0.0000
